<?xml version="1.0" standalone="no"?>
<!DOCTYPE svg PUBLIC "-//W3C//DTD SVG 20010904//EN"
 "http://www.w3.org/TR/2001/REC-SVG-20010904/DTD/svg10.dtd">
<svg version="1.0" xmlns="http://www.w3.org/2000/svg"
 width="289" height="289" viewBox="0 0 282.000000 284.000000"
 preserveAspectRatio="xMidYMid meet">

<g transform="translate(0.000000,284.000000) scale(0.100000,-0.100000)"
fill="#f42534" stroke="none">
<path d="M1230 2809 c-142 -23 -182 -33 -305 -77 -110 -39 -304 -143 -353
-189 -17 -16 -14 -16 38 2 24 8 98 28 164 44 117 28 158 36 316 62 97 16 529
16 635 0 146 -22 263 -46 395 -83 160 -45 163 -45 70 17 -228 154 -505 236
-785 234 -66 -1 -145 -5 -175 -10z"/>
<path d="M1113 2394 c-96 -12 -287 -49 -338 -64 -181 -55 -314 -108 -472 -187
-132 -66 -132 -66 -159 -122 -28 -60 -77 -192 -72 -196 2 -1 56 23 120 55 64
32 127 62 140 65 13 4 41 16 63 25 75 33 149 60 220 80 17 5 55 16 85 25 30 8
78 20 105 26 28 6 68 15 90 20 73 16 178 29 343 43 139 12 189 12 340 1 97 -8
202 -19 232 -24 30 -5 71 -13 90 -16 19 -3 51 -10 70 -15 19 -5 73 -19 119
-30 170 -44 374 -122 561 -216 58 -29 106 -51 108 -50 3 3 -23 87 -38 121 -36
85 -54 123 -68 138 -20 22 -227 123 -332 161 -41 15 -84 31 -95 36 -28 11 -73
26 -125 40 -25 7 -56 16 -70 20 -34 11 -160 36 -245 49 -38 6 -101 15 -138 21
-87 14 -415 10 -534 -6z"/>
<path d="M1125 1899 c-218 -33 -432 -84 -540 -128 -11 -5 -51 -21 -90 -36 -89
-36 -290 -135 -358 -177 -28 -18 -63 -39 -77 -46 -60 -31 -62 -35 -56 -109 14
-171 18 -203 24 -203 4 0 31 16 59 35 264 177 659 324 996 370 27 4 59 9 70
12 45 10 454 5 517 -6 36 -7 92 -17 125 -23 131 -23 318 -74 400 -108 11 -4
52 -21 90 -36 127 -52 314 -149 437 -227 31 -21 61 -37 66 -37 12 0 32 141 32
227 l0 72 -42 29 c-40 27 -85 53 -198 114 -109 59 -311 138 -535 207 -54 17
-236 52 -349 66 -121 17 -471 18 -571 4z"/>
<path d="M1200 1394 c-271 -25 -554 -111 -810 -246 -128 -67 -300 -175 -300
-189 0 -18 44 -125 77 -188 196 -369 540 -630 953 -722 47 -10 97 -19 113 -19
l27 0 0 465 0 466 -62 -6 c-66 -7 -122 -17 -226 -41 -35 -9 -77 -12 -93 -9
-53 12 -87 93 -59 144 25 47 353 111 569 111 187 0 533 -62 573 -102 24 -24
23 -75 -2 -115 -25 -41 -67 -49 -151 -30 -104 25 -160 35 -225 42 -51 5 -63 3
-68 -10 -3 -9 -6 -219 -6 -466 0 -421 1 -449 18 -450 80 -5 273 35 387 80 82
32 266 133 331 182 118 88 247 221 325 336 75 110 162 284 157 311 -5 26 -123
104 -303 201 -58 31 -254 115 -350 150 -72 26 -232 64 -365 87 -83 14 -421 26
-510 18z"/>
</g>
</svg>
